<?xml version="1.0" encoding="UTF-8" standalone="no"?>
<!-- Created with Inkscape (http://www.inkscape.org/) -->

<svg
   width="512"
   height="512"
   viewBox="0 0 512 512"
   version="1.1"
   id="svg1"
   xmlns:inkscape="http://www.inkscape.org/namespaces/inkscape"
   xmlns:sodipodi="http://sodipodi.sourceforge.net/DTD/sodipodi-0.dtd"
   xmlns="http://www.w3.org/2000/svg"
   xmlns:svg="http://www.w3.org/2000/svg">
  <sodipodi:namedview
     id="namedview1"
     pagecolor="#ffffff"
     bordercolor="#000000"
     borderopacity="0.25"
     inkscape:showpageshadow="2"
     inkscape:pageopacity="0.0"
     inkscape:pagecheckerboard="0"
     inkscape:deskcolor="#d1d1d1"
     inkscape:document-units="px">
    <inkscape:page
       x="0"
       y="0"
       width="512"
       height="512"
       id="page2"
       margin="0"
       bleed="0" />
  </sodipodi:namedview>
  <defs
     id="defs1" />
  <g
     inkscape:label="Camada 1"
     inkscape:groupmode="layer"
     id="layer1">
    <path
       style="fill:#000000;stroke-width:2.66557"
       d="m 48.2987,509.97057 c -5.830974,-1.9592 -10.613968,-5.94537 -13.349548,-11.12564 -2.359194,-4.46751 -2.708293,-7.99035 -2.494242,-25.16962 l 0.203666,-16.34588 2.006685,-1.9254 2.006695,-1.92541 8.891119,-0.19982 8.891119,-0.19984 0.03031,-106.33472 0.03034,-106.33474 -22.428042,-0.009 C 7.939877,240.39108 6.5282685,240.23494 4.5373696,237.31581 3.0776319,235.17555 2.6978449,232.3723 3.5882432,230.31013 4.3857824,228.46304 5.9567775,227.21447 49.002672,194.21656 58.290345,187.09685 68.652629,179.1358 72.029971,176.52533 81.802825,168.9721 148.38118,117.9093 181.94691,92.224219 198.83358,79.30225 216.61943,65.660695 221.47102,61.909676 251.0368,39.050803 252.53378,38.097681 256.74749,39.449069 c 1.07532,0.34487 9.13653,6.078941 17.91378,12.742394 38.7389,29.409497 49.42297,37.699924 49.6886,38.556431 0.35452,1.143071 2.78602,17.948216 2.78566,19.252736 -2.1e-4,0.75897 -0.47975,0.61082 -2.30202,-0.71118 -2.91244,-2.11286 -57.52523,-43.779618 -64.85298,-49.479484 l -5.46843,-4.25361 -14.79313,11.224566 c -8.13621,6.173522 -18.7999,14.340295 -23.69704,18.148381 -4.89716,3.808096 -22.3058,17.157937 -38.68586,29.666307 -37.58332,28.69988 -65.13869,49.76956 -92.109102,70.42937 -21.953464,16.81675 -37.103856,28.34388 -47.475148,36.1213 l -6.026087,4.51896 16.225269,0.006 c 15.714547,0.006 16.278528,0.0452 17.916918,1.28331 3.592798,2.71495 3.386255,-4.41443 3.352008,115.70382 l -0.03151,110.53489 185.405882,0.0567 185.40586,0.057 0.0317,-110.82955 c 0.0269,-94.45148 0.16068,-111.12582 0.9047,-112.83419 1.58123,-3.63055 2.72203,-3.84695 20.43202,-3.8761 15.09655,-0.0248 15.76726,-0.073 14.30647,-1.02709 -0.84294,-0.55056 -13.06514,-9.85337 -27.16037,-20.67292 -21.02329,-16.13751 -25.62762,-19.9274 -25.62731,-21.09414 5.2e-4,-1.81597 1.11328,-2.21654 9.45606,-3.40388 l 6.59596,-0.93873 18.82984,14.27799 c 26.30009,19.94242 45.6386,34.89418 46.93695,36.28978 2.75767,2.96423 1.3591,8.32655 -2.69042,10.31544 -1.88396,0.92531 -4.38891,1.02931 -24.65879,1.02392 l -22.5618,-0.006 -0.0303,106.38999 -0.0303,106.39001 8.31848,0.002 c 14.29276,0.007 13.91203,-0.64202 13.65578,23.18555 l -0.19157,17.81249 -2.01514,3.92487 c -2.36925,4.61455 -6.79774,8.74736 -11.80246,11.01447 l -3.37704,1.52976 -204.13068,0.0584 C 70.889015,510.89153 50.792765,510.80713 48.298683,509.9692 Z m 406.32993,-13.66733 c 1.46814,-0.32115 3.32399,-1.04071 4.12417,-1.59904 2.93559,-2.04833 3.33804,-3.90289 3.34132,-15.397 0.002,-5.86729 -0.20412,-10.66999 -0.45741,-10.67266 -2.19318,-0.0216 -411.584704,-0.17295 -412.865736,-0.15124 l -1.688309,0.0285 -0.0027,10.46217 c -0.0018,8.79563 0.16887,10.78415 1.070814,12.48356 1.456993,2.7452 3.895712,4.33441 7.373276,4.80488 4.877852,0.6599 396.090905,0.69972 399.103895,0.0406 z m -314.9946,-67.89518 c -6.22353,-1.4097 -12.23883,-6.21118 -14.90538,-11.89765 -1.4545,-3.10173 -1.78078,-4.74926 -2.09119,-10.55964 -0.26703,-4.998 -0.63123,-7.17855 -1.32913,-7.95755 -1.47852,-1.65039 -1.80871,-2.96015 -2.35084,-9.32534 -0.27611,-3.2419 -0.99132,-7.05856 -1.58935,-8.48149 -0.59803,-1.42296 -3.27456,-5.38695 -5.94784,-8.80889 -5.71246,-7.31226 -8.44226,-12.27531 -10.66159,-19.38391 -1.405603,-4.50222 -1.620249,-6.26091 -1.639419,-13.43237 -0.02587,-9.6919 0.868697,-13.9506 4.486309,-21.35676 5.33796,-10.92814 13.40169,-18.95712 24.25847,-24.15393 7.60329,-3.63948 13.62228,-4.90272 23.33061,-4.89659 14.35883,0.009 27.03847,5.44096 37.40016,16.02205 15.44367,15.77068 18.66727,37.45151 8.45287,56.85123 -1.03498,1.9657 -4.06927,6.37069 -6.74285,9.78891 -6.08413,7.77859 -6.94013,9.78565 -7.50698,17.60166 -0.42651,5.88081 -1.00398,7.9505 -2.7885,9.99421 -0.4708,0.53921 -0.88565,3.41235 -1.06378,7.36741 -0.42009,9.32766 -2.92589,14.53468 -9.08056,18.86954 -4.96471,3.49672 -9.03766,4.4171 -19.22566,4.34462 -4.78156,-0.034 -9.73396,-0.29752 -11.00535,-0.58551 z m 20.23994,-14.65141 c 3.19067,-1.86651 4.06791,-3.71787 4.37047,-9.22341 l 0.27187,-4.94715 -13.58336,-0.007 -13.58339,-0.007 -0.002,4.08757 c -0.002,4.5464 0.65584,6.72998 2.64757,8.79755 2.02794,2.10513 3.19598,2.36385 10.85561,2.40436 5.95937,0.0315 7.3661,-0.14174 9.0224,-1.11059 z m 8.33325,-32.42251 c 1.31545,-6.40121 3.08368,-9.81079 9.02578,-17.40394 10.05583,-12.84994 12.61974,-20.92827 10.18049,-32.07642 -2.70288,-12.35308 -13.48825,-23.81193 -26.16985,-27.80408 -6.23657,-1.96325 -15.46633,-2.00326 -21.82572,-0.0948 -11.38698,3.41761 -21.31018,13.51947 -24.47166,24.91235 -1.14319,4.11961 -1.16314,14.6267 -0.0356,18.69808 1.45025,5.23624 4.2621,10.20987 8.90937,15.75889 5.29725,6.32513 8.2541,11.87524 9.64735,18.10836 l 1.02542,4.5875 16.37464,0.007 16.37461,0.007 z m 118.32074,38.70684 c -7.17682,-1.87812 -13.90708,-7.31248 -17.05797,-13.77352 l -1.66192,-3.40787 -0.15099,-59.23281 c -0.14785,-58.03874 -0.12587,-59.31206 1.09386,-63.16368 1.51015,-4.76854 4.94634,-9.14624 9.3983,-11.97336 6.30307,-4.00266 4.20797,-3.8911 69.30755,-3.69135 l 58.58874,0.17974 4.68487,2.22494 c 7.11373,3.37845 11.67227,8.97256 13.32108,16.34727 0.53745,2.40405 0.67095,18.17245 0.51642,61.00497 l -0.20831,57.76293 -1.91061,3.83062 c -2.38173,4.77515 -5.87686,8.57112 -10.14984,11.02353 -6.64413,3.81324 -4.78073,3.71148 -66.80992,3.64853 -42.32492,-0.0428 -56.88075,-0.23541 -58.96123,-0.77994 z M 402.9007,405.28493 c 3.19877,-1.28204 5.66573,-4.21321 6.44018,-7.65199 0.46617,-2.06989 0.61736,-19.47221 0.49443,-56.91338 -0.16041,-48.86135 -0.27252,-54.09811 -1.19257,-55.70041 -1.31583,-2.2915 -3.45484,-4.18334 -5.62222,-4.9725 -1.17796,-0.42891 -19.52004,-0.63466 -57.61616,-0.64638 -62.64674,-0.0189 -58.63425,-0.29857 -61.80846,4.30313 l -1.63421,2.3691 -0.18162,55.04694 c -0.11932,36.19054 0.0335,55.81442 0.44619,57.28745 0.85789,3.06217 2.81103,5.28189 5.79242,6.58298 2.37689,1.0373 5.29426,1.09413 57.62329,1.12248 46.88041,0.0246 55.43936,-0.0982 57.2586,-0.82742 z m -87.31738,-13.84047 c -1.07565,-0.64911 -2.21654,-1.65865 -2.53534,-2.2434 -0.63497,-1.16479 -1.28992,-7.8627 -1.31769,-13.47572 l -0.0184,-3.57104 -3.55936,-2.21297 c -4.26798,-2.65355 -6.61813,-5.35027 -8.50673,-9.76131 -3.7509,-8.76053 -0.0266,-19.26053 8.56286,-24.14232 l 3.51412,-1.99721 0.006,-17.6188 c 0.006,-19.44526 0.23447,-20.87564 3.61113,-22.55075 3.79007,-1.88025 9.22089,-0.35889 10.53006,2.94983 0.34082,0.86135 0.596,9.19468 0.59312,19.36805 l -0.006,17.85618 3.51297,1.99939 c 6.43482,3.6623 9.99003,9.8598 9.98788,17.41108 -0.003,6.86964 -3.99806,13.58603 -10.13706,17.03765 l -2.64403,1.48665 -0.21407,8.21802 -0.21406,8.21805 -1.92113,1.84257 c -2.51786,2.41487 -6.38602,2.91116 -9.24474,1.18605 z m 7.7301,-33.98856 c 4.55796,-3.67989 1.8351,-10.86813 -4.11743,-10.86999 -3.01044,-7.1e-4 -6.24915,3.20516 -6.25002,6.18697 -4.6e-4,1.69433 0.46498,2.62811 2.08618,4.18553 2.64954,2.54528 5.53048,2.71836 8.28127,0.49749 z m 46.97346,34.54929 c -0.70277,-0.27322 -2.01475,-1.3381 -2.91547,-2.36646 l -1.6377,-1.86969 0.006,-18.69776 0.006,-18.69775 -2.2735,-0.79005 c -1.2504,-0.43453 -3.69383,-2.15454 -5.42981,-3.82221 -9.32469,-8.95773 -7.22295,-24.43401 4.1999,-30.92604 l 3.51412,-1.99721 0.003,-7.24667 c 0.002,-3.9857 0.27166,-7.92685 0.60113,-8.75815 1.31107,-3.30792 6.74277,-4.82594 10.53176,-2.94335 2.85301,1.41752 3.60358,3.91228 3.60129,11.97007 l -0.003,7.03596 2.64408,1.48874 c 3.46469,1.95074 7.56829,6.27613 9.22384,9.72232 2.05489,4.27748 1.88241,11.67184 -0.37533,16.09114 -1.86661,3.65371 -6.82279,8.4936 -9.67378,9.4468 l -1.82946,0.61168 -0.013,18.36167 c -0.0157,20.08891 -0.05,20.30322 -3.6272,22.61613 -2.13902,1.38305 -4.3163,1.63928 -6.55028,0.77083 z m 5.4607,-54.88283 c 1.71305,-0.74873 3.50795,-3.42245 3.50844,-5.22633 6.9e-4,-3.00431 -3.46981,-6.51182 -6.44436,-6.51271 -3.02789,-7e-4 -6.47462,3.53879 -6.42637,6.59971 0.0675,4.27479 5.06441,7.01786 9.36229,5.13933 z m -272.89279,-55.2915 c -7.604747,-7.197 -9.057878,-9.06514 -9.057142,-11.64377 9.3e-4,-4.94912 6.223142,-8.32619 10.929382,-5.93238 1.97015,1.00214 13.80883,12.45222 14.78601,14.30072 0.98205,1.85769 0.83539,5.60452 -0.27911,7.13125 -1.33222,1.82496 -4.08854,3.07361 -6.78291,3.07279 -2.08056,-6.5e-4 -2.90389,-0.59508 -9.59623,-6.92861 z m 81.30168,5.75668 c -1.11752,-0.65461 -2.4373,-2.12252 -2.93284,-3.26205 -1.62741,-3.7424 -0.54327,-5.65255 7.57499,-13.34613 4.20827,-3.98813 7.94053,-7.02687 8.92013,-7.2626 2.88342,-0.69388 5.7354,0.19359 7.76784,2.41745 2.10109,2.29883 2.42845,4.63894 1.00878,7.21117 -1.04487,1.89314 -13.5843,13.84713 -15.50855,14.78447 -2.02349,0.9857 -4.56641,0.78378 -6.83035,-0.54231 z m -38.64552,-13.80417 -2.29264,-2.01978 0.004,-10.69935 0.004,-10.69932 2.29378,-2.01636 c 1.80542,-1.58703 2.8124,-2.0162 4.72962,-2.0156 3.29207,7.3e-4 5.34713,1.00078 6.84584,3.3304 1.15644,1.79764 1.23768,2.72321 1.05587,12.0289 l -0.19699,10.08144 -2.29378,2.01555 c -1.90507,1.674 -2.76501,2.01543 -5.07448,2.01472 -2.31086,-7e-4 -3.16809,-0.34212 -5.07333,-2.0206 z M 249.9879,247.00874 c -2.99943,-1.30889 -4.83111,-3.59891 -5.78204,-7.22891 -2.25199,-8.59639 6.61892,-15.44906 15.16997,-11.71866 8.06813,3.51974 8.08987,15.08282 0.0354,18.82331 -3.29519,1.53028 -6.11604,1.56747 -9.42332,0.12436 z m -24.53494,-29.09249 c -2.72051,-2.39505 -3.33681,-5.59689 -1.67108,-8.68176 2.24597,-4.15946 11.81684,-10.18647 19.24867,-12.12135 5.44139,-1.41667 14.30927,-1.69908 19.618,-0.62479 9.32813,1.8877 21.88859,9.56366 23.04433,14.0829 0.7217,2.822 -0.20883,5.51472 -2.60249,7.53127 -1.96782,1.65779 -2.54803,1.84395 -4.93872,1.5845 -1.82652,-0.19822 -3.44372,-0.88763 -4.96474,-2.11649 -5.8945,-4.7622 -12.55503,-7.17334 -19.72676,-7.14116 -6.18316,0.0278 -11.64343,2.2202 -18.33866,7.36351 -3.61553,2.77748 -6.6104,2.8157 -9.66855,0.1234 z m -21.12914,-21.30228 c -2.90527,-0.91161 -4.90867,-3.92304 -4.90768,-7.37703 6.9e-4,-2.60741 0.18154,-2.87818 4.76166,-7.13176 12.79824,-11.88576 28.19114,-17.94021 47.42949,-18.65531 17.65139,-0.65612 32.90751,3.79117 47.4353,13.82775 6.32905,4.37245 10.68173,8.83662 11.19852,11.48533 0.75053,3.84684 -2.87052,8.1071 -6.8897,8.10587 -2.67117,-7.9e-4 -4.08841,-0.72257 -7.66093,-3.90149 -6.28286,-5.59059 -16.53433,-10.81203 -26.12274,-13.30523 -7.29718,-1.89741 -22.34721,-1.89453 -29.93667,0.006 -9.78971,2.45119 -18.94622,7.20048 -26.27772,13.62972 -3.98584,3.4953 -6.04689,4.25231 -9.02953,3.31641 z m -25.55237,-23.86734 c -1.21757,-0.73513 -2.31586,-2.14696 -2.99039,-3.84412 -1.05067,-2.64353 -1.04501,-2.72306 0.39139,-5.5019 2.7135,-5.24949 17.16865,-15.84784 29.94956,-21.95864 7.71184,-3.68718 18.24863,-7.12761 27.38324,-8.94105 5.84471,-1.16033 8.61257,-1.34201 20.56694,-1.35001 15.5814,-0.0102 21.92024,0.86931 34.26286,4.75517 15.332,4.82703 33.44434,15.3843 42.39192,24.70929 4.09261,4.26522 4.18287,8.22477 0.26282,11.52723 -1.94557,1.63902 -2.56344,1.84226 -4.84747,1.5944 -2.17682,-0.23625 -3.38508,-0.95176 -7.17421,-4.24854 -13.47228,-11.72173 -31.18657,-20.13185 -48.63119,-23.08838 -8.36718,-1.41807 -23.63204,-1.41786 -31.85281,4.7e-4 -17.95641,3.09799 -35.18288,11.19209 -47.36171,22.25353 -4.54097,4.12434 -5.57057,4.78224 -7.82768,5.00169 -1.87217,0.18202 -3.13712,-0.0721 -4.52327,-0.90914 z M 410.33,166.49574 c -18.3928,-2.74983 -33.49907,-10.16354 -46.67539,-22.90692 -7.48369,-7.23777 -11.92893,-13.05953 -16.03757,-21.00366 -5.9328,-11.47117 -8.81375,-23.644169 -8.80988,-37.224642 0.004,-9.133967 1.25172,-16.436579 4.34692,-25.413034 14.07548,-40.820722 56.86047,-63.4031696 101.16033,-53.3936762 19.83087,4.4807532 38.53054,17.1245882 50.39619,34.0755402 5.89857,8.426509 11.19622,20.805849 13.34038,31.173286 1.4693,7.104248 1.46806,22.108818 -0.003,29.195896 -5.60861,27.03138 -24.75398,49.76561 -50.77459,60.29241 -13.58407,5.49553 -31.62234,7.49548 -46.94399,5.2048 z m 50.75618,-26.23649 c 4.88532,-0.9944 9.83934,-3.64524 14.13773,-7.56496 l 3.85302,-3.51357 -39.9035,-0.0328 -39.90349,-0.0327 40.75553,-39.108642 40.75551,-39.108623 -0.76067,-2.285731 c -3.23749,-9.728106 -12.71322,-18.263468 -22.52104,-20.286028 -1.90864,-0.39359 -15.1464,-0.556733 -37.03343,-0.456362 l -34.063,0.156197 -4.0363,1.894875 c -3.64792,1.712565 -10.39344,7.437985 -10.39418,8.822296 -1.3e-4,0.262556 16.16148,0.411807 35.91464,0.33171 19.75317,-0.08005 35.91483,0.05672 35.91476,0.304069 -8e-5,0.24735 -18.11542,17.832998 -40.25632,39.079251 l -40.25622,38.629518 1.51925,4.0219 c 3.53589,9.36049 11.23228,16.42434 20.64151,18.94508 3.73727,1.0012 70.83101,1.18268 75.6362,0.20457 z"
       id="path1" />
  </g>
</svg>
